PathFileType	4	(X/Y/Z)	Walk6.trc
DataRate	CameraRate	NumFrames	NumMarkers	Units	OrigDataRate	OrigDataStartFrame	OrigNumFrames
200.000000	200.000000	4	59	mm	200.000000	959	1038
Frame#	Times		LFHD		RFHD		RCAR		RWRU		LACR1		RACR1		RUA1		RTH2		LLFC		RFA1		LMT5		RASI		LTH3		LUA1		LElbow		LMT1		LTB4		RTH4		LToe		RBHD		RLFC		LTB3		LTH4		LTH2		STRN		CLAV		LASI		RTH3		LTH1		LWRU		C7		LFA1		RBack		RMT1		RTH1		LBHD		RMT5		RCAL		LPSI		LCAR		RToe		RTB2		RLMAL		RPSI		RTB3		LWRR		RTB4		RTB1		LTB1		LLMAL		RMMAL		RElbow		RWRR		RElbowM		T10		LTB2		LMMAL		LCAL		LElbowM
			X1	Y1	Z1	X2	Y2	Z2	X3	Y3	Z3	X4	Y4	Z4	X5	Y5	Z5	X6	Y6	Z6	X7	Y7	Z7	X8	Y8	Z8	X9	Y9	Z9	X10	Y10	Z10	X11	Y11	Z11	X12	Y12	Z12	X13	Y13	Z13	X14	Y14	Z14	X15	Y15	Z15	X16	Y16	Z16	X17	Y17	Z17	X18	Y18	Z18	X19	Y19	Z19	X20	Y20	Z20	X21	Y21	Z21	X22	Y22	Z22	X23	Y23	Z23	X24	Y24	Z24	X25	Y25	Z25	X26	Y26	Z26	X27	Y27	Z27	X28	Y28	Z28	X29	Y29	Z29	X30	Y30	Z30	X31	Y31	Z31	X32	Y32	Z32	X33	Y33	Z33	X34	Y34	Z34	X35	Y35	Z35	X36	Y36	Z36	X37	Y37	Z37	X38	Y38	Z38	X39	Y39	Z39	X40	Y40	Z40	X41	Y41	Z41	X42	Y42	Z42	X43	Y43	Z43	X44	Y44	Z44	X45	Y45	Z45	X46	Y46	Z46	X47	Y47	Z47	X48	Y48	Z48	X49	Y49	Z49	X50	Y50	Z50	X51	Y51	Z51	X52	Y52	Z52	X53	Y53	Z53	X54	Y54	Z54	X55	Y55	Z55	X56	Y56	Z56	X57	Y57	Z57	X58	Y58	Z58	X59	Y59	Z59

959	4.795	623.79	1576.4	-61.402	618.1	1574.7	36.722	544.54	807.17	340.36	491.32	848.16	344.4	504.19	1346.2	-207.35	495.11	1374.4	152.32	459.12	1234.7	245.95	534.3	619.67	184.16	598.91	491.22	-167.31	497.75	955.97	313.59	693.66	26.3	-151.72	577.48	953.1	156.24	608.14	568.44	-184.42	466.28	1200.9	-278.37	387.46	1068.8	-302.97	710.03	35.886	-61.053	622.86	250.96	-74.288	477.22	626.48	201.7	752.74	30.54	-60.889	447.93	1559.1	34.525	448.37	452.11	181.78	619.04	164.63	-77.654	598.42	652.45	-210.27	645.73	666.37	-175.37	638.44	1217.9	-13.09	572.81	1333.3	-23.678	583.72	958.18	-191.11	464.23	541.5	188.68	590.98	734.27	-233.17	326.55	838.35	-366.36	411.51	1409.9	-18.225	395.83	937.6	-340.75	354.53	1310.1	81.058	288.47	43.561	76.09	501.67	707.25	212.25	475.03	1551.7	-97.703	270.96	31.512	162.09	141.89	143.39	122.11	344.48	971.97	-117.23	342.22	779.82	-370.43	324.87	28.439	80.486	364.32	284.68	172.97	203.81	138.72	167.46	326.36	971.1	17.032	316.09	207.02	116.33	379.76	815.09	-319.21	373.46	269.65	114.18	438.61	327.55	109.05	634.92	335.68	-67.927	576.2	69.751	-143.04	227.12	139.39	84.267	419.25	1075.1	292.95	537.99	856.7	287.53	388.28	1052.4	207.84	357.35	1077.7	-26.618	623.74	255.64	-136.2	585.58	72.956	-58.034	520.64	29.701	-104.21	392.27	1030.8	-199.38
960	4.8	628.09	1577.1	-62.848	622.2	1575.5	35.274	544.99	806.95	338.38	492.2	848.6	342.48	508.57	1346.9	-208.72	499.01	1375.5	150.71	462.53	1236	244.4	541.41	620.66	184.63	600.25	491.28	-168.15	499.57	956.43	311.71	693.68	26.3	-151.86	582.2	954.81	155	609.72	568.51	-185.7	471.51	1201.3	-279.64	393.18	1068.9	-304.17	709.98	35.965	-61.126	623.66	250.91	-74.86	484.2	626.96	202.1	752.75	30.589	-61.007	452.02	1559.9	32.759	457.17	452.49	182.76	619.4	164.58	-77.968	601.16	652.74	-211.32	648.89	665.9	-176.61	642.66	1219.1	-14.964	576.98	1334.2	-25.19	588.06	959.19	-192.33	472.18	541.77	189.34	594.88	734.77	-234.01	333.9	837.83	-367.27	415.61	1410.6	-19.998	402.45	937.58	-341.55	358.56	1311	79.376	291	44.607	76.394	507.59	708.14	212.42	479.38	1552.5	-99.403	273.69	33.096	162.26	147.45	148.86	122.81	348.85	972.6	-117.48	349.89	779.35	-371.01	326.77	28.436	80.943	371.41	286.19	173.87	209.18	142.56	168.05	330.89	971.56	16.732	322.41	209.16	116.93	386.71	815	-319.6	380.5	271.15	114.67	446.56	327.94	110.3	636.25	335.55	-68.725	576.22	69.712	-143.19	232.47	142.78	84.914	421.97	1076.1	290.91	538.99	856.72	285.65	391.54	1053.8	205.42	361.85	1078.3	-27.415	624.41	255.43	-136.79	585.58	73.039	-58.194	520.63	29.686	-104.31	397.54	1031.3	-200.43
961	4.805	632.36	1577.8	-64.256	626.3	1576.2	33.863	545.4	806.71	336.36	493.08	849.05	340.59	512.91	1347.5	-210.05	502.85	1376.6	149.14	465.95	1237.3	242.91	548.51	621.69	185.12	601.39	491.29	-168.98	501.38	956.9	309.84	693.69	26.301	-151.97	586.85	956.51	153.9	611.11	568.5	-186.87	476.78	1201.8	-280.88	398.94	1069	-305.38	709.92	36.048	-61.193	624.39	250.86	-75.433	491.19	627.45	202.51	752.74	30.659	-61.123	456.11	1560.7	31.044	466.04	452.91	183.73	619.72	164.56	-78.319	603.64	652.87	-212.37	651.82	665.34	-177.93	646.86	1220.3	-16.789	581.14	1335.1	-26.662	592.39	960.2	-193.49	480.15	542.06	190	598.46	735.06	-234.95	341.4	837.3	-368.21	419.67	1411.2	-21.763	409.16	937.56	-342.38	362.56	1312	77.683	294.03	45.769	76.826	513.49	709.02	212.6	483.72	1553.2	-101.05	276.87	34.896	162.54	153.28	154.14	123.42	353.19	973.24	-117.72	357.74	778.87	-371.62	329.19	28.482	81.591	378.64	287.71	174.7	214.82	146.37	168.56	335.39	972.03	16.42	328.92	211.29	117.45	393.83	814.92	-320.03	387.73	272.67	115.12	454.61	328.4	111.49	637.45	335.43	-69.504	576.22	69.671	-143.33	238.06	146.12	85.474	424.7	1077.2	288.92	539.97	856.75	283.76	394.77	1055.3	203.08	366.32	1078.9	-28.183	624.98	255.23	-137.37	585.56	73.119	-58.33	520.6	29.668	-104.4	402.8	1031.7	-201.49
962	4.81	636.62	1578.5	-65.627	630.39	1577	32.491	545.78	806.44	334.3	493.96	849.51	338.72	517.23	1348.2	-211.35	506.61	1377.7	147.61	469.36	1238.5	241.48	555.58	622.76	185.61	602.38	491.27	-169.77	503.18	957.36	308.01	693.69	26.303	-152.07	591.43	958.2	152.95	612.35	568.39	-187.93	482.08	1202.2	-282.12	404.73	1069.1	-306.61	709.87	36.129	-61.255	625.06	250.82	-75.997	498.16	627.97	202.92	752.73	30.739	-61.237	460.19	1561.5	29.384	474.94	453.38	184.68	620.02	164.56	-78.7	605.88	652.87	-213.39	654.52	664.7	-179.3	651.05	1221.5	-18.562	585.3	1336.1	-28.093	596.71	961.2	-194.58	488.14	542.37	190.67	601.73	735.14	-235.98	349.05	836.74	-369.17	423.7	1411.8	-23.517	415.96	937.55	-343.22	366.53	1312.9	75.983	297.63	47.038	77.409	519.39	709.91	212.79	488.03	1554	-102.65	280.51	36.898	162.95	159.37	159.17	123.89	357.52	973.89	-117.96	365.77	778.39	-372.26	332.18	28.591	82.466	386	289.26	175.46	220.71	150.11	168.97	339.87	972.51	16.096	335.61	213.41	117.9	401.12	814.86	-320.51	395.12	274.21	115.55	462.75	328.93	112.62	638.52	335.32	-70.25	576.21	69.629	-143.45	243.91	149.37	85.942	427.42	1078.3	286.98	540.92	856.77	281.85	397.97	1056.7	200.81	370.78	1079.5	-28.923	625.45	255.05	-137.94	585.55	73.194	-58.44	520.57	29.649	-104.48	408.05	1032.2	-202.58
